<svg id="Layer_1" data-name="Layer 1" xmlns="http://www.w3.org/2000/svg" viewBox="0 0 281.29 90.7"><defs><style>.cls-1{fill:#fff100;}.cls-2{fill:#12205f;}.cls-3{fill:#2c3dfc;}.cls-4{fill:#eb008b;}</style></defs><path class="cls-1" d="M116.46,47.87A7,7,0,0,1,112.68,35l17.83-11.66a7,7,0,0,1,7.54,11.74L120.22,46.76A6.94,6.94,0,0,1,116.46,47.87Z" transform="translate(-16.88 -22.25)"/><path class="cls-1" d="M267.71,84.86A7,7,0,0,1,263.93,72l23.49-15.09A7,7,0,0,1,295,68.66L271.48,83.75A7,7,0,0,1,267.71,84.86Z" transform="translate(-16.88 -22.25)"/><path class="cls-1" d="M23.86,113a7,7,0,0,1-3.78-12.84L34.29,90.05a7,7,0,0,1,7.54,11.74l-14.21,10A6.83,6.83,0,0,1,23.86,113Z" transform="translate(-16.88 -22.25)"/><path class="cls-1" d="M93,112a7,7,0,0,1-3.78-12.85l23.49-15.09a7,7,0,0,1,7.54,11.74L96.73,110.89A7,7,0,0,1,93,112Z" transform="translate(-16.88 -22.25)"/><path class="cls-2" d="M85.87,103.88V41.37A8.14,8.14,0,0,1,88,35.58a7.29,7.29,0,0,1,10.5,0,8.42,8.42,0,0,1,2,5.88v62.42a8.38,8.38,0,0,1-2,5.94,7.41,7.41,0,0,1-10.5,0A8.09,8.09,0,0,1,85.87,104Z" transform="translate(-16.88 -22.25)"/><path class="cls-2" d="M108.8,103.87V64.82A8.14,8.14,0,0,1,110.88,59a7.28,7.28,0,0,1,10.51,0,8.45,8.45,0,0,1,2,5.9v38.94a8.41,8.41,0,0,1-2,5.95,7.42,7.42,0,0,1-10.51,0A8.13,8.13,0,0,1,108.8,104Z" transform="translate(-16.88 -22.25)"/><path class="cls-2" d="M131.94,103.87V64.82A8.14,8.14,0,0,1,134,59a6.85,6.85,0,0,1,5.23-2.24,7,7,0,0,1,4.57,1.42,6.28,6.28,0,0,1,2.13,4,13.56,13.56,0,0,1,5.53-4.47,21.08,21.08,0,0,1,8.57-1.52,20.38,20.38,0,0,1,14.31,5.19q5.69,5.17,5.69,14.54v28a8.42,8.42,0,0,1-2,5.95,7.41,7.41,0,0,1-10.5,0,8.09,8.09,0,0,1-2.09-5.84V78.41c0-3.32-.93-5.8-2.79-7.46a9.78,9.78,0,0,0-6.75-2.49,8.52,8.52,0,0,0-6.9,2.9,10.72,10.72,0,0,0-2.43,7.15v25.37a8.38,8.38,0,0,1-2,5.94,7.42,7.42,0,0,1-10.51,0,8.13,8.13,0,0,1-2.08-5.85Z" transform="translate(-16.88 -22.25)"/><path class="cls-2" d="M212.07,75.7l21.47,25.12a6.23,6.23,0,0,1,1.06,1.67,12.72,12.72,0,0,1,.56,1.68,5.89,5.89,0,0,1,.15.82,5.51,5.51,0,0,1,.05.81,6.57,6.57,0,0,1-2,4.83,6.68,6.68,0,0,1-4.92,2,6.08,6.08,0,0,1-2.48-.51,9.57,9.57,0,0,1-2.29-1.42c-.34-.34-.69-.71-1.06-1.11s-.77-.85-1.17-1.32L203.39,85.87v18a8.33,8.33,0,0,1-2,5.94,7.41,7.41,0,0,1-10.5,0,8.09,8.09,0,0,1-2.08-5.84V41.37a8.14,8.14,0,0,1,2.08-5.79,7.29,7.29,0,0,1,10.5,0,8.38,8.38,0,0,1,2,5.88V75.37Z" transform="translate(-16.88 -22.25)"/><path class="cls-2" d="M280.4,64.84a23.78,23.78,0,0,0-18.86-8.62v.08a23.71,23.71,0,0,0-18.86,8.54,29.6,29.6,0,0,0-7.36,19.79,28.93,28.93,0,0,0,7.27,19.63c4.74,5.58,11.08,8.37,19,8.37s14.21-2.79,18.94-8.37a28.89,28.89,0,0,0,7.28-19.63A29.6,29.6,0,0,0,280.4,64.84ZM273.13,85.4c0,.33-.09.67-.09,1a18.9,18.9,0,0,1-3.21,8.8,9.31,9.31,0,0,1-8.29,4.14,9.42,9.42,0,0,1-8.29-4.06A18.84,18.84,0,0,1,250,86.41c0-.34-.09-.68-.09-.93v-.85a4.46,4.46,0,0,1,.09-1.09V82.35a18.25,18.25,0,0,1,3.3-8.71,9.78,9.78,0,0,1,8.2-4.06,9.5,9.5,0,0,1,8.2,4,18.35,18.35,0,0,1,3.3,8.71v1.18a4.88,4.88,0,0,1,.09,1.1Z" transform="translate(-16.88 -22.25)"/><path class="cls-2" d="M32.4,104.09v-63a8,8,0,0,1,2.08-5.44,7.31,7.31,0,0,1,5.83-2.38l34-.1a6.33,6.33,0,0,1,5.08,2.28,7.59,7.59,0,0,1,1.72,4.82v.31a7.71,7.71,0,0,1-1.77,4.61,6.07,6.07,0,0,1-5,2.09l-26.67-.11v56.94a7.79,7.79,0,0,1-13,5.86,7.48,7.48,0,0,1-2.18-5.78Z" transform="translate(-16.88 -22.25)"/><path class="cls-3" d="M72.63,59.41A7,7,0,0,0,63,57.31l-15.36,10V64.89h0V63.19a7.61,7.61,0,0,0-15.22,0v16.7a7.32,7.32,0,0,0,2.81,5.68l.24.21c.08.06.14.14.23.2a3,3,0,0,0,.37.25l.13.07a6.93,6.93,0,0,0,1.54.77,1.11,1.11,0,0,0,.19.09l.16,0,.5.13a7.88,7.88,0,0,0,1,.12c.15,0,.29,0,.44,0h.06a6.49,6.49,0,0,0,2.17-.34c.11,0,.23-.13.35-.18a6.58,6.58,0,0,0,1-.51s.11,0,.17-.08l.09-.06.86-.47a8.57,8.57,0,0,0,.89-.62l1.18-.81L70.53,69.05A7,7,0,0,0,72.63,59.41Z" transform="translate(-16.88 -22.25)"/><path class="cls-4" d="M234.39,56.58a7,7,0,0,0-9.63-2.1L203.39,68.85V67.26h0V65.63a7.3,7.3,0,1,0-14.59,0v16a7.16,7.16,0,0,0,3.14,5.84l.36.24a6.62,6.62,0,0,0,1.53.76c.09,0,.17.11.26.13a5.63,5.63,0,0,0,1.84.3c.06,0,.11,0,.17,0h0l.17,0,.13,0c.1,0,.2,0,.31,0a5.27,5.27,0,0,0,.81-.12,6.78,6.78,0,0,0,2.64-1L232.3,66.22A7,7,0,0,0,234.39,56.58Z" transform="translate(-16.88 -22.25)"/><path class="cls-2" d="M116.11,32.68a8.46,8.46,0,0,1,5.73,2.49,7.53,7.53,0,0,1,2.49,5.63,8.25,8.25,0,0,1-2.39,5.93,7.91,7.91,0,0,1-11.57,0,8.14,8.14,0,0,1-2.49-5.88,7.62,7.62,0,0,1,2.49-5.59,8,8,0,0,1,5.74-2.43Z" transform="translate(-16.88 -22.25)"/></svg>